<?xml version="1.0" encoding="UTF-8" standalone="no"?>
<!-- Created with Inkscape (http://www.inkscape.org/) -->

<svg
   width="59.866318"
   height="44.020779"
   viewBox="0 0 15.83963 11.647165"
   version="1.1"
   id="svg5"
   xmlns="http://www.w3.org/2000/svg"
   xmlns:svg="http://www.w3.org/2000/svg">
  <defs
     id="defs2" />
  <g
     id="layer1"
     transform="translate(-5.3093518,-7.4055847)">
    <path
       id="rect5429"
       style="fill:#000000;stroke-width:3.39014;stroke-linejoin:round;paint-order:markers stroke fill"
       d="m 6.0894868,7.4055847 c -0.432195,0 -0.780135,0.347941 -0.780135,0.780135 V 18.272614 c 0,0.432195 0.34794,0.780135 0.780135,0.780135 H 20.368847 c 0.432195,0 0.780135,-0.34794 0.780135,-0.780135 V 8.1857197 c 0,-0.432194 -0.34794,-0.780135 -0.780135,-0.780135 z m 0.895177,1.062782 H 19.472909 c 0.216097,0 0.390067,0.17397 0.390067,0.390067 v 7.1811973 c 0,0.216097 -0.17397,0.390067 -0.390067,0.390067 H 6.9846638 c -0.216097,0 -0.390068,-0.17397 -0.390068,-0.390067 V 8.8584337 c 0,-0.216097 0.173971,-0.390067 0.390068,-0.390067 z" />
  </g>
</svg>
